<mxfile host="app.diagrams.net" modified="2024-02-25T18:20:31.484Z" agent="Mozilla/5.0 (Windows NT 10.0; Win64; x64) AppleWebKit/537.36 (KHTML, like Gecko) Chrome/122.0.0.0 Safari/537.36" etag="WwmSUIWFi_IWW2kQFRRT" version="23.1.6" type="device">
  <diagram name="Page-1" id="1622d65d-c77d-c4b6-e0e7-3c11208c8684">
    <mxGraphModel dx="2647" dy="1557" grid="1" gridSize="10" guides="1" tooltips="1" connect="1" arrows="1" fold="1" page="1" pageScale="1.5" pageWidth="1169" pageHeight="826" background="none" math="0" shadow="0">
      <root>
        <mxCell id="0" style=";html=1;" />
        <mxCell id="1" style=";html=1;" parent="0" />
        <mxCell id="869962fe87da545-3" value="" style="whiteSpace=wrap;html=1;rounded=0;shadow=0;dashed=0;strokeWidth=1;fontFamily=Tahoma;fontSize=10;fontColor=#FFFFFF;strokeColor=none;fillColor=#7FB61A;gradientColor=#1B622A;gradientDirection=west;" parent="1" vertex="1">
          <mxGeometry x="1360" y="210" width="200" height="180" as="geometry" />
        </mxCell>
        <mxCell id="869962fe87da545-4" value="" style="verticalLabelPosition=bottom;verticalAlign=top;html=1;strokeWidth=1;shape=mxgraph.basic.orthogonal_triangle;rounded=0;shadow=0;dashed=0;fontFamily=Tahoma;fontSize=10;fontColor=#FFFFFF;flipV=1;fillColor=#000000;strokeColor=none;opacity=50;" parent="1" vertex="1">
          <mxGeometry x="1360" y="350" width="140" height="40" as="geometry" />
        </mxCell>
        <mxCell id="869962fe87da545-6" value="" style="whiteSpace=wrap;html=1;rounded=0;shadow=0;dashed=0;strokeWidth=1;fontFamily=Tahoma;fontSize=10;fontColor=#FFFFFF;strokeColor=none;fillColor=#5398DB;gradientColor=#1247B9;gradientDirection=west;" parent="1" vertex="1">
          <mxGeometry x="1370" y="470" width="190" height="180" as="geometry" />
        </mxCell>
        <mxCell id="869962fe87da545-7" value="" style="verticalLabelPosition=bottom;verticalAlign=top;html=1;strokeWidth=1;shape=mxgraph.basic.orthogonal_triangle;rounded=0;shadow=0;dashed=0;fontFamily=Tahoma;fontSize=10;fontColor=#FFFFFF;flipV=1;fillColor=#000000;strokeColor=none;opacity=50;" parent="1" vertex="1">
          <mxGeometry x="1370" y="610" width="140" height="40" as="geometry" />
        </mxCell>
        <mxCell id="869962fe87da545-9" value="" style="whiteSpace=wrap;html=1;rounded=0;shadow=0;dashed=0;strokeWidth=1;fontFamily=Tahoma;fontSize=10;fontColor=#FFFFFF;strokeColor=none;fillColor=#8D029D;gradientColor=#65009E;gradientDirection=west;" parent="1" vertex="1">
          <mxGeometry x="1370" y="720" width="190" height="180" as="geometry" />
        </mxCell>
        <mxCell id="869962fe87da545-10" value="" style="verticalLabelPosition=bottom;verticalAlign=top;html=1;strokeWidth=1;shape=mxgraph.basic.orthogonal_triangle;rounded=0;shadow=0;dashed=0;fontFamily=Tahoma;fontSize=10;fontColor=#FFFFFF;flipV=1;fillColor=#000000;strokeColor=none;opacity=50;" parent="1" vertex="1">
          <mxGeometry x="1370" y="860" width="140" height="40" as="geometry" />
        </mxCell>
        <mxCell id="869962fe87da545-12" value="" style="whiteSpace=wrap;html=1;rounded=0;shadow=0;dashed=0;strokeWidth=1;fontFamily=Tahoma;fontSize=10;fontColor=#FFFFFF;strokeColor=none;fillColor=#F19001;gradientColor=#C23603;gradientDirection=west;" parent="1" vertex="1">
          <mxGeometry x="1370" y="970" width="190" height="180" as="geometry" />
        </mxCell>
        <mxCell id="869962fe87da545-13" value="" style="verticalLabelPosition=bottom;verticalAlign=top;html=1;strokeWidth=1;shape=mxgraph.basic.orthogonal_triangle;rounded=0;shadow=0;dashed=0;fontFamily=Tahoma;fontSize=10;fontColor=#FFFFFF;flipV=1;fillColor=#000000;strokeColor=none;opacity=50;" parent="1" vertex="1">
          <mxGeometry x="1370" y="1110" width="140" height="40" as="geometry" />
        </mxCell>
        <mxCell id="869962fe87da545-15" value="" style="whiteSpace=wrap;html=1;rounded=0;shadow=0;dashed=0;strokeWidth=1;fontFamily=Tahoma;fontSize=10;fontColor=#FFFFFF;strokeColor=none;fillColor=#EA0001;gradientColor=#AD0002;gradientDirection=west;" parent="1" vertex="1">
          <mxGeometry x="1370" y="1220" width="190" height="180" as="geometry" />
        </mxCell>
        <mxCell id="869962fe87da545-16" value="" style="verticalLabelPosition=bottom;verticalAlign=top;html=1;strokeWidth=1;shape=mxgraph.basic.orthogonal_triangle;rounded=0;shadow=0;dashed=0;fontFamily=Tahoma;fontSize=10;fontColor=#FFFFFF;flipV=1;fillColor=#000000;strokeColor=none;opacity=50;" parent="1" vertex="1">
          <mxGeometry x="1370" y="1360" width="140" height="40" as="geometry" />
        </mxCell>
        <mxCell id="869962fe87da545-5" value="" style="whiteSpace=wrap;html=1;rounded=0;shadow=0;dashed=0;strokeWidth=1;fillColor=#E6E6E6;fontFamily=Verdana;fontSize=70;strokeColor=none;verticalAlign=top;spacingTop=10;" parent="1" vertex="1">
          <mxGeometry x="60" y="30" width="1360" height="1410" as="geometry" />
        </mxCell>
        <mxCell id="869962fe87da545-2" value="" style="html=1;shadow=0;dashed=0;align=center;verticalAlign=middle;shape=mxgraph.arrows2.arrow;dy=0;dx=0;notch=30;rounded=0;strokeColor=none;strokeWidth=1;fillColor=#7FB61A;fontFamily=Tahoma;fontSize=10;fontColor=#FFFFFF;gradientColor=#1B622A;gradientDirection=east;" parent="1" vertex="1">
          <mxGeometry x="290" y="170" width="1210" height="180" as="geometry" />
        </mxCell>
        <mxCell id="869962fe87da545-8" value="" style="html=1;shadow=0;dashed=0;align=center;verticalAlign=middle;shape=mxgraph.arrows2.arrow;dy=0;dx=0;notch=30;rounded=0;strokeColor=none;strokeWidth=1;fillColor=#5398DB;fontFamily=Tahoma;fontSize=10;fontColor=#FFFFFF;gradientColor=#1247B9;gradientDirection=east;" parent="1" vertex="1">
          <mxGeometry x="300" y="430" width="1210" height="180" as="geometry" />
        </mxCell>
        <mxCell id="869962fe87da545-11" value="" style="html=1;shadow=0;dashed=0;align=center;verticalAlign=middle;shape=mxgraph.arrows2.arrow;dy=0;dx=0;notch=30;rounded=0;strokeColor=none;strokeWidth=1;fillColor=#8D029D;fontFamily=Tahoma;fontSize=10;fontColor=#FFFFFF;gradientColor=#65009E;gradientDirection=east;" parent="1" vertex="1">
          <mxGeometry x="300" y="680" width="1210" height="180" as="geometry" />
        </mxCell>
        <mxCell id="869962fe87da545-14" value="" style="html=1;shadow=0;dashed=0;align=center;verticalAlign=middle;shape=mxgraph.arrows2.arrow;dy=0;dx=0;notch=30;rounded=0;strokeColor=none;strokeWidth=1;fillColor=#F19001;fontFamily=Tahoma;fontSize=10;fontColor=#FFFFFF;gradientColor=#C23603;gradientDirection=east;" parent="1" vertex="1">
          <mxGeometry x="300" y="930" width="1210" height="180" as="geometry" />
        </mxCell>
        <mxCell id="869962fe87da545-17" value="" style="html=1;shadow=0;dashed=0;align=center;verticalAlign=middle;shape=mxgraph.arrows2.arrow;dy=0;dx=0;notch=30;rounded=0;strokeColor=none;strokeWidth=1;fillColor=#EA0001;fontFamily=Tahoma;fontSize=10;fontColor=#FFFFFF;gradientColor=#AD0002;gradientDirection=east;" parent="1" vertex="1">
          <mxGeometry x="300" y="1180" width="1210" height="180" as="geometry" />
        </mxCell>
        <mxCell id="869962fe87da545-18" value="AEIOU Framework" style="text;html=1;strokeColor=none;fillColor=none;align=center;verticalAlign=middle;whiteSpace=wrap;rounded=0;shadow=0;dashed=0;fontFamily=Verdana;fontSize=70;horizontal=0;" parent="1" vertex="1">
          <mxGeometry x="110" y="170" width="130" height="1190" as="geometry" />
        </mxCell>
        <mxCell id="869962fe87da545-19" value="A" style="text;html=1;strokeColor=none;fillColor=none;align=right;verticalAlign=middle;whiteSpace=wrap;rounded=0;shadow=0;dashed=0;fontFamily=Helvetica;fontSize=150;fontColor=#FFFFFF;" parent="1" vertex="1">
          <mxGeometry x="320" y="170" width="200" height="180" as="geometry" />
        </mxCell>
        <mxCell id="869962fe87da545-20" value="E" style="text;html=1;strokeColor=none;fillColor=none;align=right;verticalAlign=middle;whiteSpace=wrap;rounded=0;shadow=0;dashed=0;fontFamily=Helvetica;fontSize=150;fontColor=#FFFFFF;" parent="1" vertex="1">
          <mxGeometry x="330" y="430" width="200" height="180" as="geometry" />
        </mxCell>
        <mxCell id="869962fe87da545-21" value="I" style="text;html=1;strokeColor=none;fillColor=none;align=right;verticalAlign=middle;whiteSpace=wrap;rounded=0;shadow=0;dashed=0;fontFamily=Helvetica;fontSize=150;fontColor=#FFFFFF;" parent="1" vertex="1">
          <mxGeometry x="330" y="680" width="200" height="180" as="geometry" />
        </mxCell>
        <mxCell id="869962fe87da545-22" value="O" style="text;html=1;strokeColor=none;fillColor=none;align=right;verticalAlign=middle;whiteSpace=wrap;rounded=0;shadow=0;dashed=0;fontFamily=Helvetica;fontSize=150;fontColor=#FFFFFF;" parent="1" vertex="1">
          <mxGeometry x="330" y="930" width="200" height="180" as="geometry" />
        </mxCell>
        <mxCell id="869962fe87da545-23" value="U" style="text;html=1;strokeColor=none;fillColor=none;align=right;verticalAlign=middle;whiteSpace=wrap;rounded=0;shadow=0;dashed=0;fontFamily=Helvetica;fontSize=150;fontColor=#FFFFFF;" parent="1" vertex="1">
          <mxGeometry x="330" y="1180" width="200" height="180" as="geometry" />
        </mxCell>
        <mxCell id="869962fe87da545-24" value="" style="line;strokeWidth=4;direction=south;html=1;rounded=0;shadow=0;dashed=0;fillColor=none;gradientColor=#AD0002;fontFamily=Helvetica;fontSize=150;fontColor=#FFFFFF;align=right;strokeColor=#FFFFFF;" parent="1" vertex="1">
          <mxGeometry x="540" y="180" width="10" height="160" as="geometry" />
        </mxCell>
        <mxCell id="869962fe87da545-25" value="" style="line;strokeWidth=4;direction=south;html=1;rounded=0;shadow=0;dashed=0;fillColor=none;gradientColor=#AD0002;fontFamily=Helvetica;fontSize=150;fontColor=#FFFFFF;align=right;strokeColor=#FFFFFF;" parent="1" vertex="1">
          <mxGeometry x="540" y="440" width="10" height="160" as="geometry" />
        </mxCell>
        <mxCell id="869962fe87da545-26" value="" style="line;strokeWidth=4;direction=south;html=1;rounded=0;shadow=0;dashed=0;fillColor=none;gradientColor=#AD0002;fontFamily=Helvetica;fontSize=150;fontColor=#FFFFFF;align=right;strokeColor=#FFFFFF;" parent="1" vertex="1">
          <mxGeometry x="540" y="690" width="10" height="160" as="geometry" />
        </mxCell>
        <mxCell id="869962fe87da545-27" value="" style="line;strokeWidth=4;direction=south;html=1;rounded=0;shadow=0;dashed=0;fillColor=none;gradientColor=#AD0002;fontFamily=Helvetica;fontSize=150;fontColor=#FFFFFF;align=right;strokeColor=#FFFFFF;" parent="1" vertex="1">
          <mxGeometry x="540" y="940" width="10" height="160" as="geometry" />
        </mxCell>
        <mxCell id="869962fe87da545-28" value="" style="line;strokeWidth=4;direction=south;html=1;rounded=0;shadow=0;dashed=0;fillColor=none;gradientColor=#AD0002;fontFamily=Helvetica;fontSize=150;fontColor=#FFFFFF;align=right;strokeColor=#FFFFFF;" parent="1" vertex="1">
          <mxGeometry x="540" y="1190" width="10" height="160" as="geometry" />
        </mxCell>
        <mxCell id="869962fe87da545-29" value="&lt;h1 style=&quot;&quot;&gt;Activities&lt;/h1&gt;&lt;p style=&quot;font-size: 24px;&quot;&gt;&lt;font style=&quot;font-size: 24px;&quot;&gt;Users engage with the chatbot to comprehend and navigate the website efficiently, underscoring the importance of interactive aids in supporting user activities.&lt;/font&gt;&lt;br&gt;&lt;/p&gt;" style="text;html=1;strokeColor=none;fillColor=none;spacing=5;spacingTop=-20;whiteSpace=wrap;overflow=hidden;rounded=0;shadow=0;dashed=0;fontFamily=Helvetica;fontSize=12;fontColor=#FFFFFF;align=left;" parent="1" vertex="1">
          <mxGeometry x="580" y="186" width="670" height="150" as="geometry" />
        </mxCell>
        <mxCell id="7oPAziTMBd2olvkax7NA-1" value="&lt;h1 style=&quot;&quot;&gt;Environment&lt;/h1&gt;&lt;p style=&quot;font-size: 24px;&quot;&gt;It illustrates how users interact with the chatbot within the specific environment of the website, highlighting the role of technology in facilitating user engagement and enhancing their browsing experience.&lt;br&gt;&lt;/p&gt;" style="text;html=1;strokeColor=none;fillColor=none;spacing=5;spacingTop=-20;whiteSpace=wrap;overflow=hidden;rounded=0;shadow=0;dashed=0;fontFamily=Helvetica;fontSize=12;fontColor=#FFFFFF;align=left;" vertex="1" parent="1">
          <mxGeometry x="579" y="432" width="670" height="187" as="geometry" />
        </mxCell>
        <mxCell id="7oPAziTMBd2olvkax7NA-2" value="&lt;h1 style=&quot;&quot;&gt;Interaction&lt;/h1&gt;&lt;p style=&quot;font-size: 24px;&quot;&gt;Interaction between the Owner and the Chatbot &amp;amp; between the User and Chatbot.&lt;br&gt;&lt;/p&gt;" style="text;html=1;strokeColor=none;fillColor=none;spacing=5;spacingTop=-20;whiteSpace=wrap;overflow=hidden;rounded=0;shadow=0;dashed=0;fontFamily=Helvetica;fontSize=12;fontColor=#FFFFFF;align=left;" vertex="1" parent="1">
          <mxGeometry x="580" y="704" width="670" height="130" as="geometry" />
        </mxCell>
        <mxCell id="7oPAziTMBd2olvkax7NA-3" value="&lt;h1 style=&quot;&quot;&gt;Objects&lt;/h1&gt;&lt;p style=&quot;font-size: 24px;&quot;&gt;The website and its chatbot must adapt to various platforms to accommodate users accessing it from different devices. This includes laptops, desktop computers, and mobile devices.&lt;br&gt;&lt;/p&gt;" style="text;html=1;strokeColor=none;fillColor=none;spacing=5;spacingTop=-20;whiteSpace=wrap;overflow=hidden;rounded=0;shadow=0;dashed=0;fontFamily=Helvetica;fontSize=12;fontColor=#FFFFFF;align=left;" vertex="1" parent="1">
          <mxGeometry x="580" y="946" width="670" height="150" as="geometry" />
        </mxCell>
        <mxCell id="7oPAziTMBd2olvkax7NA-4" value="&lt;h1 style=&quot;&quot;&gt;Users&lt;/h1&gt;&lt;p style=&quot;font-size: 24px;&quot;&gt;Direct Users: These are individuals who visit the website and engage directly with the chatbot to seek assistance or information about the website&#39;s functionalities.&lt;br&gt;&lt;/p&gt;" style="text;html=1;strokeColor=none;fillColor=none;spacing=5;spacingTop=-20;whiteSpace=wrap;overflow=hidden;rounded=0;shadow=0;dashed=0;fontFamily=Helvetica;fontSize=12;fontColor=#FFFFFF;align=left;" vertex="1" parent="1">
          <mxGeometry x="581" y="1193" width="670" height="150" as="geometry" />
        </mxCell>
      </root>
    </mxGraphModel>
  </diagram>
</mxfile>
